<svg id="Layer_1" data-name="Layer 1" xmlns="http://www.w3.org/2000/svg" viewBox="0 0 1125 2436"><defs><style>.cls-1{fill:#001220;}.cls-2{fill:#533694;}.cls-3{fill:#493280;}.cls-4{fill:#402e6d;}.cls-5{fill:#372a5a;}.cls-6{fill:#2f2548;}</style></defs><rect class="cls-1" x="-796" y="-0.03" width="3264.83" height="2534.03"/><path class="cls-2" d="M-796,500.57l77.54-17.14c77.54-17.41,232.62-51.69,388.24-74.82,155.35-23.12,311.52-35.09,466.87-23.12,155.63,11.7,310.71,47.07,466.33,48.43,155.35,1.36,311.52-31.29,466.87-46.8,155.63-15.24,310.71-13.6,466.33-20.68,155.35-7.34,311.52-23.67,466.87-6.53,155.62,17.42,310.7,68,388.24,93.6l77.54,25.3V0H-796Z"/><path class="cls-3" d="M-796,266.59l77.54-2.17c77.54-2.45,232.62-6.8,388.24-4.08,155.35,2.72,311.52,12.51,466.87,18,155.63,5.44,310.71,6.53,466.33,19.59,155.35,13.06,311.52,38.64,466.87,34.83,155.63-3.54,310.71-36.19,466.33-35.37,155.35,1.09,311.52,35.37,466.87,53.05,155.62,17.69,310.7,18.77,388.24,19.05l77.54.54V0H-796Z"/><path class="cls-4" d="M-796,247.55l77.54.81c77.54,1.09,232.62,2.73,388.24,1.09,155.35-1.9,311.52-7.34,466.87-12C292.28,233.13,447.36,229.32,603,244c155.35,14.42,311.52,47.07,466.87,63.39,155.63,16.33,310.71,16.33,466.33,10.34,155.35-5.71,311.52-17.68,466.87-24.48,155.62-6.81,310.7-8.44,388.24-9.53l77.54-.81V0H-796Z"/><path class="cls-5" d="M-796,133.28l77.54,10.88c77.54,10.88,232.62,32.65,388.24,49,155.35,16.33,311.52,27.21,466.87,23.67C292.28,213,447.36,195,603,177.35c155.35-17.68,311.52-35.09,466.87-31.83,155.63,3.27,310.71,26.67,466.33,44.35,155.35,17.68,311.52,29.66,466.87,24.21,155.62-5.44,310.7-28.29,388.24-39.45l77.54-11.42V0H-796Z"/><path class="cls-6" d="M-796,111.51l77.54.55c77.54.27,232.62,1.36,388.24-1.36,155.35-2.72,311.52-9.25,466.87-4.08,155.63,4.89,310.71,21.22,466.33,23.94,155.35,2.72,311.52-8.16,466.87-21.22C1225.48,96,1380.56,80.77,1536.18,74a4177.34,4177.34,0,0,1,466.87,5.44c155.62,10.34,310.7,29.38,388.24,38.91l77.54,9.52V0H-796Z"/></svg>