<svg id="Layer_1" data-name="Layer 1" xmlns="http://www.w3.org/2000/svg" viewBox="0 0 1125 2436"><defs><style>.cls-1{fill:#201832;}.cls-2{fill:#a971d1;}.cls-3{fill:#6a5da9;}.cls-4{fill:#37467c;}.cls-5{fill:#122d4d;}.cls-6{fill:#001220;}</style></defs><rect class="cls-1" x="-477" y="0.18" width="2023.28" height="2552.82"/><path class="cls-2" d="M-477,373.23l48.05-7.38c48.27-7.38,144.37-22.13,240.69-40s192.42-39,288.74-36.47c96.31,2.32,192.42,28.46,289.16,34.36,96.52,5.9,193.47-8,290-8,96.74,0,192.84,13.91,289.16,10.54,96.32-3.59,192.42-24.66,288.74-33.72,96.32-9.28,192.42-6.33,240.68-5.06l48.06,1.47V.18H-477Z"/><path class="cls-3" d="M-477,270l48.05,7.8c48.27,7.59,144.37,23.19,240.69,29.09s192.42,2.53,288.74-13.7S292.9,248.25,389.64,247.4c96.52-.63,193.47,26.77,290,26.77,96.74,0,192.84-27.4,289.16-33.3,96.32-6.11,192.42,9.48,288.74,6.53,96.32-2.74,192.42-23.81,240.68-34.35l48.06-10.54V.18H-477Z"/><path class="cls-4" d="M-477,175.11l48.05-3.58c48.27-3.37,144.37-10.54,240.69-15,96.32-4.64,192.42-6.75,288.74,8.43,96.31,15,192.42,47.42,289.16,55.85,96.52,8.43,193.47-7.17,290-17.71a2614.28,2614.28,0,0,1,289.16-15.8c96.32.42,192.42,6.74,288.74,8.43,96.32,1.89,192.42-1.06,240.68-2.32l48.06-1.48V.18H-477Z"/><path class="cls-5" d="M-477,116.1l48.05-.42c48.27-.21,144.37-1.05,240.69,2.11s192.42,10.32,288.74,8.43c96.31-1.69,192.42-12.23,289.16-8.43,96.52,4,193.47,22.13,290,29.5,96.74,7.38,192.84,4,289.16,0,96.32-3.79,192.42-8,288.74-5.9s192.42,10.54,240.68,14.76l48.06,4.21V.18H-477Z"/><path class="cls-6" d="M-477,90.81l48.05-6.74C-380.68,77.53-284.58,64-188.26,63S4.16,73.32,100.48,81.33,292.9,94.39,389.64,96.71c96.52,2.53,193.47,2.53,290-6.53,96.74-9.28,192.84-27.4,289.16-31.41,96.32-3.79,192.42,6.75,288.74,7.8S1450,59.2,1498.22,55l48.06-4.21V.18H-477Z"/></svg>