<svg id="visual" viewBox="0 0 900 600" width="900" height="600" xmlns="http://www.w3.org/2000/svg" xmlns:xlink="http://www.w3.org/1999/xlink" version="1.1"><rect x="0" y="0" width="900" height="600" fill="#00111f"></rect><defs><linearGradient id="grad1_0" x1="33.3%" y1="0%" x2="100%" y2="100%"><stop offset="20%" stop-color="#fa933c" stop-opacity="1"></stop><stop offset="80%" stop-color="#fa933c" stop-opacity="1"></stop></linearGradient></defs><defs><linearGradient id="grad1_1" x1="33.3%" y1="0%" x2="100%" y2="100%"><stop offset="20%" stop-color="#fa933c" stop-opacity="1"></stop><stop offset="80%" stop-color="#eb6e53" stop-opacity="1"></stop></linearGradient></defs><defs><linearGradient id="grad1_2" x1="33.3%" y1="0%" x2="100%" y2="100%"><stop offset="20%" stop-color="#cc5264" stop-opacity="1"></stop><stop offset="80%" stop-color="#eb6e53" stop-opacity="1"></stop></linearGradient></defs><defs><linearGradient id="grad1_3" x1="33.3%" y1="0%" x2="100%" y2="100%"><stop offset="20%" stop-color="#cc5264" stop-opacity="1"></stop><stop offset="80%" stop-color="#a1436c" stop-opacity="1"></stop></linearGradient></defs><defs><linearGradient id="grad1_4" x1="33.3%" y1="0%" x2="100%" y2="100%"><stop offset="20%" stop-color="#713968" stop-opacity="1"></stop><stop offset="80%" stop-color="#a1436c" stop-opacity="1"></stop></linearGradient></defs><defs><linearGradient id="grad1_5" x1="33.3%" y1="0%" x2="100%" y2="100%"><stop offset="20%" stop-color="#713968" stop-opacity="1"></stop><stop offset="80%" stop-color="#413058" stop-opacity="1"></stop></linearGradient></defs><defs><linearGradient id="grad1_6" x1="33.3%" y1="0%" x2="100%" y2="100%"><stop offset="20%" stop-color="#1a223d" stop-opacity="1"></stop><stop offset="80%" stop-color="#413058" stop-opacity="1"></stop></linearGradient></defs><defs><linearGradient id="grad1_7" x1="33.3%" y1="0%" x2="100%" y2="100%"><stop offset="20%" stop-color="#1a223d" stop-opacity="1"></stop><stop offset="80%" stop-color="#00111f" stop-opacity="1"></stop></linearGradient></defs><defs><linearGradient id="grad2_0" x1="0%" y1="0%" x2="66.7%" y2="100%"><stop offset="20%" stop-color="#fa933c" stop-opacity="1"></stop><stop offset="80%" stop-color="#fa933c" stop-opacity="1"></stop></linearGradient></defs><defs><linearGradient id="grad2_1" x1="0%" y1="0%" x2="66.7%" y2="100%"><stop offset="20%" stop-color="#eb6e53" stop-opacity="1"></stop><stop offset="80%" stop-color="#fa933c" stop-opacity="1"></stop></linearGradient></defs><defs><linearGradient id="grad2_2" x1="0%" y1="0%" x2="66.7%" y2="100%"><stop offset="20%" stop-color="#eb6e53" stop-opacity="1"></stop><stop offset="80%" stop-color="#cc5264" stop-opacity="1"></stop></linearGradient></defs><defs><linearGradient id="grad2_3" x1="0%" y1="0%" x2="66.7%" y2="100%"><stop offset="20%" stop-color="#a1436c" stop-opacity="1"></stop><stop offset="80%" stop-color="#cc5264" stop-opacity="1"></stop></linearGradient></defs><defs><linearGradient id="grad2_4" x1="0%" y1="0%" x2="66.7%" y2="100%"><stop offset="20%" stop-color="#a1436c" stop-opacity="1"></stop><stop offset="80%" stop-color="#713968" stop-opacity="1"></stop></linearGradient></defs><defs><linearGradient id="grad2_5" x1="0%" y1="0%" x2="66.7%" y2="100%"><stop offset="20%" stop-color="#413058" stop-opacity="1"></stop><stop offset="80%" stop-color="#713968" stop-opacity="1"></stop></linearGradient></defs><defs><linearGradient id="grad2_6" x1="0%" y1="0%" x2="66.7%" y2="100%"><stop offset="20%" stop-color="#413058" stop-opacity="1"></stop><stop offset="80%" stop-color="#1a223d" stop-opacity="1"></stop></linearGradient></defs><defs><linearGradient id="grad2_7" x1="0%" y1="0%" x2="66.7%" y2="100%"><stop offset="20%" stop-color="#00111f" stop-opacity="1"></stop><stop offset="80%" stop-color="#1a223d" stop-opacity="1"></stop></linearGradient></defs><g transform="translate(900, 0)"><path d="M0 405.6C-31.7 388.8 -63.5 372 -97.8 365.1C-132.2 358.3 -169.2 361.4 -202 349.9C-234.8 338.4 -263.4 312.2 -282.8 282.8C-302.3 253.4 -312.8 220.8 -331.7 191.5C-350.6 162.2 -378.1 136.3 -391.8 105C-405.5 73.6 -405.6 36.8 -405.6 0L0 0Z" fill="#0b1a2e"></path><path d="M0 354.9C-27.8 340.2 -55.5 325.5 -85.6 319.5C-115.7 313.5 -148.1 316.2 -176.7 306.1C-205.4 296.1 -230.4 273.2 -247.5 247.5C-264.5 221.8 -273.7 193.2 -290.2 167.6C-306.8 141.9 -330.8 119.3 -342.8 91.9C-354.9 64.4 -354.9 32.2 -354.9 0L0 0Z" fill="#2c294b"></path><path d="M0 304.2C-23.8 291.6 -47.6 279 -73.4 273.8C-99.2 268.7 -126.9 271 -151.5 262.4C-176.1 253.8 -197.5 234.2 -212.1 212.1C-226.8 190.1 -234.6 165.6 -248.8 143.6C-263 121.7 -283.5 102.3 -293.9 78.7C-304.2 55.2 -304.2 27.6 -304.2 0L0 0Z" fill="#583561"></path><path d="M0 253.5C-19.8 243 -39.7 232.5 -61.1 228.2C-82.6 223.9 -105.8 225.9 -126.2 218.7C-146.7 211.5 -164.6 195.2 -176.8 176.8C-189 158.4 -195.5 138 -207.3 119.7C-219.1 101.4 -236.3 85.2 -244.9 65.6C-253.5 46 -253.5 23 -253.5 0L0 0Z" fill="#893e6c"></path><path d="M0 202.8C-15.9 194.4 -31.7 186 -48.9 182.6C-66.1 179.1 -84.6 180.7 -101 174.9C-117.4 169.2 -131.7 156.1 -141.4 141.4C-151.2 126.7 -156.4 110.4 -165.8 95.8C-175.3 81.1 -189 68.2 -195.9 52.5C-202.8 36.8 -202.8 18.4 -202.8 0L0 0Z" fill="#b8496a"></path><path d="M0 152.1C-11.9 145.8 -23.8 139.5 -36.7 136.9C-49.6 134.3 -63.5 135.5 -75.7 131.2C-88 126.9 -98.8 117.1 -106.1 106.1C-113.4 95 -117.3 82.8 -124.4 71.8C-131.5 60.8 -141.8 51.1 -146.9 39.4C-152.1 27.6 -152.1 13.8 -152.1 0L0 0Z" fill="#dd5e5c"></path><path d="M0 101.4C-7.9 97.2 -15.9 93 -24.5 91.3C-33.1 89.6 -42.3 90.3 -50.5 87.5C-58.7 84.6 -65.8 78.1 -70.7 70.7C-75.6 63.4 -78.2 55.2 -82.9 47.9C-87.7 40.6 -94.5 34.1 -98 26.2C-101.4 18.4 -101.4 9.2 -101.4 0L0 0Z" fill="#f57f48"></path><path d="M0 50.7C-4 48.6 -7.9 46.5 -12.2 45.6C-16.5 44.8 -21.2 45.2 -25.2 43.7C-29.3 42.3 -32.9 39 -35.4 35.4C-37.8 31.7 -39.1 27.6 -41.5 23.9C-43.8 20.3 -47.3 17 -49 13.1C-50.7 9.2 -50.7 4.6 -50.7 0L0 0Z" fill="#fa933c"></path></g><g transform="translate(0, 600)"><path d="M0 -405.6C28.5 -377.6 57 -349.5 91.4 -341C125.8 -332.4 166.1 -343.3 189.5 -328.2C212.9 -313.2 219.4 -272.2 251 -251C282.6 -229.9 339.3 -228.6 351.3 -202.8C363.3 -177.1 330.7 -126.9 332.3 -89C333.9 -51.2 369.8 -25.6 405.6 0L0 0Z" fill="#0b1a2e"></path><path d="M0 -354.9C24.9 -330.4 49.8 -305.9 79.9 -298.4C110 -290.8 145.3 -300.4 165.8 -287.2C186.3 -274 192 -238.2 219.6 -219.6C247.3 -201.1 296.9 -200 307.4 -177.5C317.9 -154.9 289.3 -111 290.7 -77.9C292.2 -44.8 323.5 -22.4 354.9 0L0 0Z" fill="#2c294b"></path><path d="M0 -304.2C21.4 -283.2 42.7 -262.2 68.5 -255.7C94.3 -249.3 124.6 -257.5 142.1 -246.2C159.7 -234.9 164.6 -204.1 188.3 -188.3C212 -172.4 254.5 -171.4 263.5 -152.1C272.5 -132.8 248 -95.2 249.2 -66.8C250.4 -38.4 277.3 -19.2 304.2 0L0 0Z" fill="#583561"></path><path d="M0 -253.5C17.8 -236 35.6 -218.5 57.1 -213.1C78.6 -207.7 103.8 -214.5 118.4 -205.1C133.1 -195.7 137.1 -170.1 156.9 -156.9C176.6 -143.7 212 -142.8 219.6 -126.8C227.1 -110.7 206.7 -79.3 207.7 -55.6C208.7 -32 231.1 -16 253.5 0L0 0Z" fill="#893e6c"></path><path d="M0 -202.8C14.2 -188.8 28.5 -174.8 45.7 -170.5C62.9 -166.2 83 -171.6 94.7 -164.1C106.5 -156.6 109.7 -136.1 125.5 -125.5C141.3 -114.9 169.6 -114.3 175.6 -101.4C181.6 -88.5 165.3 -63.5 166.1 -44.5C166.9 -25.6 184.9 -12.8 202.8 0L0 0Z" fill="#b8496a"></path><path d="M0 -152.1C10.7 -141.6 21.4 -131.1 34.3 -127.9C47.2 -124.6 62.3 -128.7 71.1 -123.1C79.8 -117.4 82.3 -102.1 94.1 -94.1C106 -86.2 127.2 -85.7 131.7 -76.1C136.2 -66.4 124 -47.6 124.6 -33.4C125.2 -19.2 138.7 -9.6 152.1 0L0 0Z" fill="#dd5e5c"></path><path d="M0 -101.4C7.1 -94.4 14.2 -87.4 22.8 -85.2C31.4 -83.1 41.5 -85.8 47.4 -82.1C53.2 -78.3 54.9 -68 62.8 -62.8C70.7 -57.5 84.8 -57.1 87.8 -50.7C90.8 -44.3 82.7 -31.7 83.1 -22.3C83.5 -12.8 92.4 -6.4 101.4 0L0 0Z" fill="#f57f48"></path><path d="M0 -50.7C3.6 -47.2 7.1 -43.7 11.4 -42.6C15.7 -41.5 20.8 -42.9 23.7 -41C26.6 -39.1 27.4 -34 31.4 -31.4C35.3 -28.7 42.4 -28.6 43.9 -25.4C45.4 -22.1 41.3 -15.9 41.5 -11.1C41.7 -6.4 46.2 -3.2 50.7 0L0 0Z" fill="#fa933c"></path></g></svg>