<svg id="visual" viewBox="0 0 1200 450" width="1200" height="450" xmlns="http://www.w3.org/2000/svg" xmlns:xlink="http://www.w3.org/1999/xlink" version="1.1"><rect x="0" y="0" width="1200" height="450" fill="#001220"></rect><path d="M0 184L28.5 177.7C57 171.3 114 158.7 171.2 150.2C228.3 141.7 285.7 137.3 342.8 141.7C400 146 457 159 514.2 159.5C571.3 160 628.7 148 685.8 142.3C743 136.7 800 137.3 857.2 134.7C914.3 132 971.7 126 1028.8 132.3C1086 138.7 1143 157.3 1171.5 166.7L1200 176L1200 0L1171.5 0C1143 0 1086 0 1028.8 0C971.7 0 914.3 0 857.2 0C800 0 743 0 685.8 0C628.7 0 571.3 0 514.2 0C457 0 400 0 342.8 0C285.7 0 228.3 0 171.2 0C114 0 57 0 28.5 0L0 0Z" fill="#533694"></path><path d="M0 98L28.5 97.2C57 96.3 114 94.7 171.2 95.7C228.3 96.7 285.7 100.3 342.8 102.3C400 104.3 457 104.7 514.2 109.5C571.3 114.3 628.7 123.7 685.8 122.3C743 121 800 109 857.2 109.3C914.3 109.7 971.7 122.3 1028.8 128.8C1086 135.3 1143 135.7 1171.5 135.8L1200 136L1200 0L1171.5 0C1143 0 1086 0 1028.8 0C971.7 0 914.3 0 857.2 0C800 0 743 0 685.8 0C628.7 0 571.3 0 514.2 0C457 0 400 0 342.8 0C285.7 0 228.3 0 171.2 0C114 0 57 0 28.5 0L0 0Z" fill="#493280"></path><path d="M0 91L28.5 91.3C57 91.7 114 92.3 171.2 91.7C228.3 91 285.7 89 342.8 87.3C400 85.7 457 84.3 514.2 89.7C571.3 95 628.7 107 685.8 113C743 119 800 119 857.2 116.8C914.3 114.7 971.7 110.3 1028.8 107.8C1086 105.3 1143 104.7 1171.5 104.3L1200 104L1200 0L1171.5 0C1143 0 1086 0 1028.8 0C971.7 0 914.3 0 857.2 0C800 0 743 0 685.8 0C628.7 0 571.3 0 514.2 0C457 0 400 0 342.8 0C285.7 0 228.3 0 171.2 0C114 0 57 0 28.5 0L0 0Z" fill="#402e6d"></path><path d="M0 49L28.5 53C57 57 114 65 171.2 71C228.3 77 285.7 81 342.8 79.7C400 78.3 457 71.7 514.2 65.2C571.3 58.7 628.7 52.3 685.8 53.5C743 54.7 800 63.3 857.2 69.8C914.3 76.3 971.7 80.7 1028.8 78.7C1086 76.7 1143 68.3 1171.5 64.2L1200 60L1200 0L1171.5 0C1143 0 1086 0 1028.8 0C971.7 0 914.3 0 857.2 0C800 0 743 0 685.8 0C628.7 0 571.3 0 514.2 0C457 0 400 0 342.8 0C285.7 0 228.3 0 171.2 0C114 0 57 0 28.5 0L0 0Z" fill="#372a5a"></path><path d="M0 41L28.5 41.2C57 41.3 114 41.7 171.2 40.7C228.3 39.7 285.7 37.3 342.8 39.2C400 41 457 47 514.2 48C571.3 49 628.7 45 685.8 40.2C743 35.3 800 29.7 857.2 27.2C914.3 24.7 971.7 25.3 1028.8 29.2C1086 33 1143 40 1171.5 43.5L1200 47L1200 0L1171.5 0C1143 0 1086 0 1028.8 0C971.7 0 914.3 0 857.2 0C800 0 743 0 685.8 0C628.7 0 571.3 0 514.2 0C457 0 400 0 342.8 0C285.7 0 228.3 0 171.2 0C114 0 57 0 28.5 0L0 0Z" fill="#2f2548"></path></svg>