<svg id="visual" viewBox="0 0 960 540" width="960" height="540" xmlns="http://www.w3.org/2000/svg" xmlns:xlink="http://www.w3.org/1999/xlink" version="1.1"><rect x="0" y="0" width="960" height="540" fill="#201832"></rect><path d="M0 177L22.8 173.5C45.7 170 91.3 163 137 154.5C182.7 146 228.3 136 274 137.2C319.7 138.3 365.3 150.7 411.2 153.5C457 156.3 503 149.7 548.8 149.7C594.7 149.7 640.3 156.3 686 154.7C731.7 153 777.3 143 823 138.7C868.7 134.3 914.3 135.7 937.2 136.3L960 137L960 0L937.2 0C914.3 0 868.7 0 823 0C777.3 0 731.7 0 686 0C640.3 0 594.7 0 548.8 0C503 0 457 0 411.2 0C365.3 0 319.7 0 274 0C228.3 0 182.7 0 137 0C91.3 0 45.7 0 22.8 0L0 0Z" fill="#a971d1"></path><path d="M0 128L22.8 131.7C45.7 135.3 91.3 142.7 137 145.5C182.7 148.3 228.3 146.7 274 139C319.7 131.3 365.3 117.7 411.2 117.3C457 117 503 130 548.8 130C594.7 130 640.3 117 686 114.2C731.7 111.3 777.3 118.7 823 117.3C868.7 116 914.3 106 937.2 101L960 96L960 0L937.2 0C914.3 0 868.7 0 823 0C777.3 0 731.7 0 686 0C640.3 0 594.7 0 548.8 0C503 0 457 0 411.2 0C365.3 0 319.7 0 274 0C228.3 0 182.7 0 137 0C91.3 0 45.7 0 22.8 0L0 0Z" fill="#6a5da9"></path><path d="M0 83L22.8 81.3C45.7 79.7 91.3 76.3 137 74.2C182.7 72 228.3 71 274 78.2C319.7 85.3 365.3 100.7 411.2 104.7C457 108.7 503 101.3 548.8 96.3C594.7 91.3 640.3 88.7 686 88.8C731.7 89 777.3 92 823 92.8C868.7 93.7 914.3 92.3 937.2 91.7L960 91L960 0L937.2 0C914.3 0 868.7 0 823 0C777.3 0 731.7 0 686 0C640.3 0 594.7 0 548.8 0C503 0 457 0 411.2 0C365.3 0 319.7 0 274 0C228.3 0 182.7 0 137 0C91.3 0 45.7 0 22.8 0L0 0Z" fill="#37467c"></path><path d="M0 55L22.8 54.8C45.7 54.7 91.3 54.3 137 55.8C182.7 57.3 228.3 60.7 274 59.8C319.7 59 365.3 54 411.2 55.8C457 57.7 503 66.3 548.8 69.8C594.7 73.3 640.3 71.7 686 69.8C731.7 68 777.3 66 823 67C868.7 68 914.3 72 937.2 74L960 76L960 0L937.2 0C914.3 0 868.7 0 823 0C777.3 0 731.7 0 686 0C640.3 0 594.7 0 548.8 0C503 0 457 0 411.2 0C365.3 0 319.7 0 274 0C228.3 0 182.7 0 137 0C91.3 0 45.7 0 22.8 0L0 0Z" fill="#122d4d"></path><path d="M0 43L22.8 39.8C45.7 36.7 91.3 30.3 137 29.8C182.7 29.3 228.3 34.7 274 38.5C319.7 42.3 365.3 44.7 411.2 45.8C457 47 503 47 548.8 42.7C594.7 38.3 640.3 29.7 686 27.8C731.7 26 777.3 31 823 31.5C868.7 32 914.3 28 937.2 26L960 24L960 0L937.2 0C914.3 0 868.7 0 823 0C777.3 0 731.7 0 686 0C640.3 0 594.7 0 548.8 0C503 0 457 0 411.2 0C365.3 0 319.7 0 274 0C228.3 0 182.7 0 137 0C91.3 0 45.7 0 22.8 0L0 0Z" fill="#001220"></path></svg>