<svg id="visual" viewBox="0 0 960 540" width="960" height="540" xmlns="http://www.w3.org/2000/svg" xmlns:xlink="http://www.w3.org/1999/xlink" version="1.1"><path d="M0 109L13.3 100C26.7 91 53.3 73 80 70.3C106.7 67.7 133.3 80.3 160 90.2C186.7 100 213.3 107 240 99.8C266.7 92.7 293.3 71.3 320 66C346.7 60.7 373.3 71.3 400 75.8C426.7 80.3 453.3 78.7 480 83.2C506.7 87.7 533.3 98.3 560 100C586.7 101.7 613.3 94.3 640 87.2C666.7 80 693.3 73 720 73C746.7 73 773.3 80 800 77.3C826.7 74.7 853.3 62.3 880 63.3C906.7 64.3 933.3 78.7 946.7 85.8L960 93L960 0L946.7 0C933.3 0 906.7 0 880 0C853.3 0 826.7 0 800 0C773.3 0 746.7 0 720 0C693.3 0 666.7 0 640 0C613.3 0 586.7 0 560 0C533.3 0 506.7 0 480 0C453.3 0 426.7 0 400 0C373.3 0 346.7 0 320 0C293.3 0 266.7 0 240 0C213.3 0 186.7 0 160 0C133.3 0 106.7 0 80 0C53.3 0 26.7 0 13.3 0L0 0Z" fill="#000f19"></path><path d="M0 147L13.3 137C26.7 127 53.3 107 80 107.8C106.7 108.7 133.3 130.3 160 140.3C186.7 150.3 213.3 148.7 240 141.5C266.7 134.3 293.3 121.7 320 120.7C346.7 119.7 373.3 130.3 400 132.2C426.7 134 453.3 127 480 129.8C506.7 132.7 533.3 145.3 560 145.3C586.7 145.3 613.3 132.7 640 125.3C666.7 118 693.3 116 720 118.7C746.7 121.3 773.3 128.7 800 127C826.7 125.3 853.3 114.7 880 118.3C906.7 122 933.3 140 946.7 149L960 158L960 91L946.7 83.8C933.3 76.7 906.7 62.3 880 61.3C853.3 60.3 826.7 72.7 800 75.3C773.3 78 746.7 71 720 71C693.3 71 666.7 78 640 85.2C613.3 92.3 586.7 99.7 560 98C533.3 96.3 506.7 85.7 480 81.2C453.3 76.7 426.7 78.3 400 73.8C373.3 69.3 346.7 58.7 320 64C293.3 69.3 266.7 90.7 240 97.8C213.3 105 186.7 98 160 88.2C133.3 78.3 106.7 65.7 80 68.3C53.3 71 26.7 89 13.3 98L0 107Z" fill="#00101b"></path><path d="M0 244L13.3 247.7C26.7 251.3 53.3 258.7 80 264C106.7 269.3 133.3 272.7 160 277.2C186.7 281.7 213.3 287.3 240 274.8C266.7 262.3 293.3 231.7 320 222.7C346.7 213.7 373.3 226.3 400 225.3C426.7 224.3 453.3 209.7 480 217.7C506.7 225.7 533.3 256.3 560 258.2C586.7 260 613.3 233 640 223.2C666.7 213.3 693.3 220.7 720 226.2C746.7 231.7 773.3 235.3 800 238C826.7 240.7 853.3 242.3 880 243.2C906.7 244 933.3 244 946.7 244L960 244L960 156L946.7 147C933.3 138 906.7 120 880 116.3C853.3 112.7 826.7 123.3 800 125C773.3 126.7 746.7 119.3 720 116.7C693.3 114 666.7 116 640 123.3C613.3 130.7 586.7 143.3 560 143.3C533.3 143.3 506.7 130.7 480 127.8C453.3 125 426.7 132 400 130.2C373.3 128.3 346.7 117.7 320 118.7C293.3 119.7 266.7 132.3 240 139.5C213.3 146.7 186.7 148.3 160 138.3C133.3 128.3 106.7 106.7 80 105.8C53.3 105 26.7 125 13.3 135L0 145Z" fill="#00111e"></path><path d="M0 401L13.3 397.3C26.7 393.7 53.3 386.3 80 385.3C106.7 384.3 133.3 389.7 160 394.2C186.7 398.7 213.3 402.3 240 404.2C266.7 406 293.3 406 320 404.2C346.7 402.3 373.3 398.7 400 393.3C426.7 388 453.3 381 480 378.3C506.7 375.7 533.3 377.3 560 373.7C586.7 370 613.3 361 640 361C666.7 361 693.3 370 720 374.5C746.7 379 773.3 379 800 383.5C826.7 388 853.3 397 880 398.8C906.7 400.7 933.3 395.3 946.7 392.7L960 390L960 242L946.7 242C933.3 242 906.7 242 880 241.2C853.3 240.3 826.7 238.7 800 236C773.3 233.3 746.7 229.7 720 224.2C693.3 218.7 666.7 211.3 640 221.2C613.3 231 586.7 258 560 256.2C533.3 254.3 506.7 223.7 480 215.7C453.3 207.7 426.7 222.3 400 223.3C373.3 224.3 346.7 211.7 320 220.7C293.3 229.7 266.7 260.3 240 272.8C213.3 285.3 186.7 279.7 160 275.2C133.3 270.7 106.7 267.3 80 262C53.3 256.7 26.7 249.3 13.3 245.7L0 242Z" fill="#001220"></path><path d="M0 455L13.3 451.3C26.7 447.7 53.3 440.3 80 436.7C106.7 433 133.3 433 160 439.3C186.7 445.7 213.3 458.3 240 459.2C266.7 460 293.3 449 320 445.3C346.7 441.7 373.3 445.3 400 440.8C426.7 436.3 453.3 423.7 480 421.8C506.7 420 533.3 429 560 429C586.7 429 613.3 420 640 414.7C666.7 409.3 693.3 407.7 720 413.2C746.7 418.7 773.3 431.3 800 441.2C826.7 451 853.3 458 880 455.3C906.7 452.7 933.3 440.3 946.7 434.2L960 428L960 388L946.7 390.7C933.3 393.3 906.7 398.7 880 396.8C853.3 395 826.7 386 800 381.5C773.3 377 746.7 377 720 372.5C693.3 368 666.7 359 640 359C613.3 359 586.7 368 560 371.7C533.3 375.3 506.7 373.7 480 376.3C453.3 379 426.7 386 400 391.3C373.3 396.7 346.7 400.3 320 402.2C293.3 404 266.7 404 240 402.2C213.3 400.3 186.7 396.7 160 392.2C133.3 387.7 106.7 382.3 80 383.3C53.3 384.3 26.7 391.7 13.3 395.3L0 399Z" fill="#021f35"></path><path d="M0 492L13.3 491.2C26.7 490.3 53.3 488.7 80 488.7C106.7 488.7 133.3 490.3 160 494.8C186.7 499.3 213.3 506.7 240 508.5C266.7 510.3 293.3 506.7 320 502.2C346.7 497.7 373.3 492.3 400 490.5C426.7 488.7 453.3 490.3 480 494C506.7 497.7 533.3 503.3 560 503.3C586.7 503.3 613.3 497.7 640 494.8C666.7 492 693.3 492 720 494.8C746.7 497.7 773.3 503.3 800 506.2C826.7 509 853.3 509 880 506.2C906.7 503.3 933.3 497.7 946.7 494.8L960 492L960 426L946.7 432.2C933.3 438.3 906.7 450.7 880 453.3C853.3 456 826.7 449 800 439.2C773.3 429.3 746.7 416.7 720 411.2C693.3 405.7 666.7 407.3 640 412.7C613.3 418 586.7 427 560 427C533.3 427 506.7 418 480 419.8C453.3 421.7 426.7 434.3 400 438.8C373.3 443.3 346.7 439.7 320 443.3C293.3 447 266.7 458 240 457.2C213.3 456.3 186.7 443.7 160 437.3C133.3 431 106.7 431 80 434.7C53.3 438.3 26.7 445.7 13.3 449.3L0 453Z" fill="#012c4b"></path><path d="M0 541L13.3 541C26.7 541 53.3 541 80 541C106.7 541 133.3 541 160 541C186.7 541 213.3 541 240 541C266.7 541 293.3 541 320 541C346.7 541 373.3 541 400 541C426.7 541 453.3 541 480 541C506.7 541 533.3 541 560 541C586.7 541 613.3 541 640 541C666.7 541 693.3 541 720 541C746.7 541 773.3 541 800 541C826.7 541 853.3 541 880 541C906.7 541 933.3 541 946.7 541L960 541L960 490L946.7 492.8C933.3 495.7 906.7 501.3 880 504.2C853.3 507 826.7 507 800 504.2C773.3 501.3 746.7 495.7 720 492.8C693.3 490 666.7 490 640 492.8C613.3 495.7 586.7 501.3 560 501.3C533.3 501.3 506.7 495.7 480 492C453.3 488.3 426.7 486.7 400 488.5C373.3 490.3 346.7 495.7 320 500.2C293.3 504.7 266.7 508.3 240 506.5C213.3 504.7 186.7 497.3 160 492.8C133.3 488.3 106.7 486.7 80 486.7C53.3 486.7 26.7 488.3 13.3 489.2L0 490Z" fill="#003a62"></path></svg>