<svg id="visual" viewBox="0 0 900 600" width="900" height="600" xmlns="http://www.w3.org/2000/svg" xmlns:xlink="http://www.w3.org/1999/xlink" version="1.1"><rect x="0" y="0" width="900" height="600" fill="#1a0a22"></rect><path d="M0 167L21.5 166.2C43 165.3 86 163.7 128.8 167C171.7 170.3 214.3 178.7 257.2 182.3C300 186 343 185 385.8 182.3C428.7 179.7 471.3 175.3 514.2 171.7C557 168 600 165 642.8 174.7C685.7 184.3 728.3 206.7 771.2 208.7C814 210.7 857 192.3 878.5 183.2L900 174L900 0L878.5 0C857 0 814 0 771.2 0C728.3 0 685.7 0 642.8 0C600 0 557 0 514.2 0C471.3 0 428.7 0 385.8 0C343 0 300 0 257.2 0C214.3 0 171.7 0 128.8 0C86 0 43 0 21.5 0L0 0Z" fill="#82569d"></path><path d="M0 152L21.5 149.7C43 147.3 86 142.7 128.8 143.5C171.7 144.3 214.3 150.7 257.2 155.7C300 160.7 343 164.3 385.8 168.2C428.7 172 471.3 176 514.2 175.2C557 174.3 600 168.7 642.8 172.3C685.7 176 728.3 189 771.2 185.2C814 181.3 857 160.7 878.5 150.3L900 140L900 0L878.5 0C857 0 814 0 771.2 0C728.3 0 685.7 0 642.8 0C600 0 557 0 514.2 0C471.3 0 428.7 0 385.8 0C343 0 300 0 257.2 0C214.3 0 171.7 0 128.8 0C86 0 43 0 21.5 0L0 0Z" fill="#664681"></path><path d="M0 152L21.5 144.3C43 136.7 86 121.3 128.8 118.2C171.7 115 214.3 124 257.2 125.3C300 126.7 343 120.3 385.8 118C428.7 115.7 471.3 117.3 514.2 114C557 110.7 600 102.3 642.8 99.3C685.7 96.3 728.3 98.7 771.2 107.2C814 115.7 857 130.3 878.5 137.7L900 145L900 0L878.5 0C857 0 814 0 771.2 0C728.3 0 685.7 0 642.8 0C600 0 557 0 514.2 0C471.3 0 428.7 0 385.8 0C343 0 300 0 257.2 0C214.3 0 171.7 0 128.8 0C86 0 43 0 21.5 0L0 0Z" fill="#4c3666"></path><path d="M0 80L21.5 76.8C43 73.7 86 67.3 128.8 63.8C171.7 60.3 214.3 59.7 257.2 64.3C300 69 343 79 385.8 87.7C428.7 96.3 471.3 103.7 514.2 99.7C557 95.7 600 80.3 642.8 71.2C685.7 62 728.3 59 771.2 61.2C814 63.3 857 70.7 878.5 74.3L900 78L900 0L878.5 0C857 0 814 0 771.2 0C728.3 0 685.7 0 642.8 0C600 0 557 0 514.2 0C471.3 0 428.7 0 385.8 0C343 0 300 0 257.2 0C214.3 0 171.7 0 128.8 0C86 0 43 0 21.5 0L0 0Z" fill="#35274b"></path><path d="M0 69L21.5 62C43 55 86 41 128.8 38C171.7 35 214.3 43 257.2 44.7C300 46.3 343 41.7 385.8 41.5C428.7 41.3 471.3 45.7 514.2 46.5C557 47.3 600 44.7 642.8 40.8C685.7 37 728.3 32 771.2 35.2C814 38.3 857 49.7 878.5 55.3L900 61L900 0L878.5 0C857 0 814 0 771.2 0C728.3 0 685.7 0 642.8 0C600 0 557 0 514.2 0C471.3 0 428.7 0 385.8 0C343 0 300 0 257.2 0C214.3 0 171.7 0 128.8 0C86 0 43 0 21.5 0L0 0Z" fill="#201832"></path></svg>